<?xml version="1.0" encoding="utf-8"?>
<!-- Generator: Adobe Illustrator 22.0.1, SVG Export Plug-In . SVG Version: 6.00 Build 0)  -->
<svg version="1.1" id="Layer_1" xmlns="http://www.w3.org/2000/svg" xmlns:xlink="http://www.w3.org/1999/xlink" x="0px" y="0px"
	 viewBox="0 0 242.7 411" style="enable-background:new 0 0 242.7 411;" xml:space="preserve">
<style type="text/css">
	.st0{fill:url(#SVGID_1_);}
	.st1{fill:#FFFFFF;}
	.st2{fill:#C1171E;}
	.st3{fill:#020203;}
	.st4{fill:#231F20;}
</style>
<linearGradient id="SVGID_1_" gradientUnits="userSpaceOnUse" x1="101.2988" y1="129.1229" x2="128.2988" y2="129.1229" gradientTransform="matrix(1 0 0 1 0 156)">
	<stop  offset="0" style="stop-color:#EEEBEA"/>
	<stop  offset="0" style="stop-color:#E0DBD8"/>
	<stop  offset="0" style="stop-color:#D7D2CE"/>
	<stop  offset="6.786538e-02" style="stop-color:#C9C4C0"/>
	<stop  offset="0.1461" style="stop-color:#B4B0AB"/>
	<stop  offset="0.5225" style="stop-color:#E8E7E7"/>
	<stop  offset="0.6579" style="stop-color:#D8D6D5"/>
	<stop  offset="0.8764" style="stop-color:#B4B0AB"/>
	<stop  offset="1" style="stop-color:#DADADA"/>
	<stop  offset="1" style="stop-color:#B3B2B2"/>
</linearGradient>
<polygon class="st0" points="128.3,411 122,406 115.4,411 107.9,406 101.3,411 101.3,159.2 128.3,159.2 "/>
<g id="g8206" transform="matrix(1.25,0,0,-1.25,0,743.62267)">
	<g id="g8208">
		<path id="path8210" class="st1" d="M97.1,594.8c-2.2,0-4.3-0.8-5.9-2.5c-0.5-0.5-1-1.1-1.3-1.8l-4.4-7.5h0l-84-145.6
			c0,0,0-0.1,0-0.1c-0.4-0.7-0.8-1.4-1-2.3c-1.2-4.5,1.5-9.1,5.9-10.3c0.7-0.2,1.5-0.3,2.2-0.3h177.1c4.6,0,8.4,3.8,8.4,8.4
			c0,1.5-0.4,2.9-1.1,4.2c0,0,0,0,0,0l-87.2,151.4c-1.1,1.9-1.6,2.7-2.7,3.7C101.4,594,99.2,594.8,97.1,594.8L97.1,594.8z"/>
		<path id="path8212" class="st2" d="M97.1,592.7c-2,0-4.3-1-5.4-3L3.1,436.1c-0.5-1-0.7-2-0.7-3c0-1.9,0.8-3.6,2.2-4.8
			c1.3-1,2.4-1.5,4-1.5h177c1.1,0,2.2,0.2,3.1,0.9c1.8,1.1,3,3.1,3,5.3c-0.1,1.1-0.3,2.3-0.8,3.1l-88.6,153.6c0,0,0,0,0,0
			c0,0,0,0,0,0c-0.3,0.5-0.7,0.9-1.2,1.3c-1,0.9-2.3,1.4-3.7,1.5C97.4,592.7,97.2,592.7,97.1,592.7z M8.7,426.8H8.2H8.7L8.7,426.8z
			 M97,562.2l67.5-117.1H29.4L97,562.2z"/>
		<path id="path8214" class="st3" d="M97.1,594.9c-2.2,0-4.4-0.8-6-2.5c-0.5-0.5-1-1.1-1.4-1.8l-4.3-7.4h0l-84-145.6
			c0,0,0-0.1,0-0.1c-0.4-0.7-0.8-1.5-1-2.3c-1.2-4.5,1.5-9.2,6-10.4c0.8-0.2,1.5-0.3,2.2-0.3h177.1c4.7,0,8.5,3.8,8.5,8.5
			c0,1.5-0.4,3-1.1,4.2c0,0,0,0,0,0l-87.2,151.4c-1.1,1.9-1.6,2.7-2.7,3.8C101.5,594.1,99.3,594.9,97.1,594.9L97.1,594.9L97.1,594.9
			z M97.1,594.8c2.2,0,4.3-0.8,5.9-2.5c1.1-1.1,1.6-1.8,2.7-3.7l87.2-151.4c0,0,0,0,0,0c0.7-1.2,1.1-2.7,1.1-4.2
			c0-4.6-3.8-8.4-8.4-8.4H8.6c-0.7,0-1.5,0.1-2.2,0.3c-4.5,1.2-7.1,5.8-5.9,10.3c0.2,0.8,0.6,1.6,1,2.3c0,0,0,0.1,0,0.1l84,145.6h0
			l4.4,7.5c0.4,0.6,0.8,1.2,1.3,1.8C92.8,594,94.9,594.8,97.1,594.8z"/>
		<path id="path8216" class="st3" d="M97.1,468.9l-15.6-15.6v31.2H65.4v9.2h16.2v17.9l15.6,15.6l15.6-15.6v-17.9h16.2v-9.2h-16.2
			v-31.2"/>
	</g>
</g>
<g id="g34580" transform="matrix(1.25,0,0,-1.25,0,600.99804)">
	<g id="g34582">
		<path id="path34584" class="st1" d="M147.9,300H36.1c-4.8,0-8.6-3.8-8.6-8.6V179.5c0-4.8,3.8-8.6,8.6-8.6h111.8
			c4.8,0,8.6,3.9,8.6,8.6v111.8C156.5,296.1,152.7,300,147.9,300"/>
		<path id="path34586" class="st3" d="M36.1,300.1c-4.8,0-8.7-3.9-8.7-8.7V179.5c0-4.8,3.9-8.7,8.7-8.7h111.8c4.8,0,8.7,3.9,8.7,8.7
			v111.8c0,4.8-3.9,8.7-8.7,8.7H36.1L36.1,300.1z M36.1,300h111.8c4.8,0,8.6-3.8,8.6-8.6V179.5c0-4.8-3.9-8.6-8.6-8.6H36.1
			c-4.8,0-8.6,3.9-8.6,8.6v111.8C27.5,296.1,31.3,300,36.1,300z"/>
		<path id="path34588" class="st4" d="M36.1,297.8c-3.6,0-6.5-2.9-6.5-6.5V179.5c0-3.6,2.9-6.5,6.5-6.5h111.8c3.6,0,6.5,2.9,6.5,6.5
			v111.8c0,3.6-2.9,6.5-6.5,6.5C147.9,297.8,36.1,297.8,36.1,297.8z M36.1,294.6h111.8c1.8,0,3.2-1.4,3.2-3.2V179.5
			c0-1.8-1.4-3.2-3.2-3.2H36.1c-1.8,0-3.2,1.4-3.2,3.2v111.8C32.9,293.1,34.3,294.6,36.1,294.6z"/>
		<path id="path34590" class="st4" d="M81.3,187.1v26.9c0,5.9-4.8,10.8-10.8,10.8H43.6v21.5h26.9c17.8,0,32.3-14.4,32.3-32.3v-26.9"
			/>
		<path id="path34592" class="st4" d="M108.1,240.8h32.3v-10.8h-32.3V240.8z"/>
		<path id="path34594" class="st4" d="M86.6,283.8h10.8v-32.3H86.6V283.8z"/>
	</g>
</g>
</svg>
